<svg
  xmlns="http://www.w3.org/2000/svg"
  viewBox="0 0 128 128"
  fill="none"
>
  <rect width="128" height="128" rx="28" fill="#101926" />
  <path
    d="M31 34C31 28.477 35.477 24 41 24H87C92.523 24 97 28.477 97 34V94C97 99.523 92.523 104 87 104H41C35.477 104 31 99.523 31 94V34Z"
    fill="url(#surface)"
  />
  <path
    d="M45 43.5C45 40.462 47.462 38 50.5 38C53.538 38 56 40.462 56 43.5C56 46.538 53.538 49 50.5 49C47.462 49 45 46.538 45 43.5ZM72 43.5C72 40.462 74.462 38 77.5 38C80.538 38 83 40.462 83 43.5C83 46.538 80.538 49 77.5 49C74.462 49 72 46.538 72 43.5ZM58 64C58 60.686 60.686 58 64 58C67.314 58 70 60.686 70 64C70 67.314 67.314 70 64 70C60.686 70 58 67.314 58 64ZM43 81C43 77.686 45.686 75 49 75C52.314 75 55 77.686 55 81C55 84.314 52.314 87 49 87C45.686 87 43 84.314 43 81ZM73 81C73 77.686 75.686 75 79 75C82.314 75 85 77.686 85 81C85 84.314 82.314 87 79 87C75.686 87 73 84.314 73 81Z"
    fill="#F5F8FF"
  />
  <path
    d="M55 46L60 58M73 46L68 58M54 79L60 69M74 79L68 69"
    stroke="#7DE1C3"
    stroke-linecap="round"
    stroke-width="5"
  />
  <defs>
    <linearGradient id="surface" x1="31" x2="97" y1="24" y2="104">
      <stop stop-color="#233652" />
      <stop offset="1" stop-color="#162236" />
    </linearGradient>
  </defs>
</svg>
